<mxfile host="app.diagrams.net" modified="2023-07-03T17:07:37.042Z" agent="Mozilla/5.0 (Windows NT 10.0; Win64; x64) AppleWebKit/537.36 (KHTML, like Gecko) Chrome/114.0.0.0 Safari/537.36" etag="o1BOwcshgXVZBsU4Va1u" version="21.5.2" type="github">
  <diagram name="Strona-1" id="XzFrDV8_sfWzwFt0LLD_">
    <mxGraphModel dx="1050" dy="491" grid="1" gridSize="10" guides="1" tooltips="1" connect="1" arrows="1" fold="1" page="1" pageScale="1" pageWidth="827" pageHeight="1169" math="0" shadow="0">
      <root>
        <mxCell id="0" />
        <mxCell id="1" parent="0" />
        <mxCell id="p-lproryEgPKI-kWoo2Y-1" value="Page to log in/log out work" style="whiteSpace=wrap;html=1;aspect=fixed;" vertex="1" parent="1">
          <mxGeometry x="30" y="10" width="160" height="160" as="geometry" />
        </mxCell>
        <mxCell id="p-lproryEgPKI-kWoo2Y-2" value="Page for manager with data of his employees" style="whiteSpace=wrap;html=1;aspect=fixed;" vertex="1" parent="1">
          <mxGeometry x="334" y="10" width="160" height="160" as="geometry" />
        </mxCell>
        <mxCell id="p-lproryEgPKI-kWoo2Y-3" value="Page for IT to manage employees account" style="whiteSpace=wrap;html=1;aspect=fixed;" vertex="1" parent="1">
          <mxGeometry x="600" y="10" width="160" height="160" as="geometry" />
        </mxCell>
        <mxCell id="p-lproryEgPKI-kWoo2Y-4" value="Database employees and log" style="whiteSpace=wrap;html=1;aspect=fixed;" vertex="1" parent="1">
          <mxGeometry x="334" y="425" width="160" height="160" as="geometry" />
        </mxCell>
        <mxCell id="p-lproryEgPKI-kWoo2Y-5" value="Service to database" style="whiteSpace=wrap;html=1;aspect=fixed;" vertex="1" parent="1">
          <mxGeometry x="334" y="235" width="160" height="160" as="geometry" />
        </mxCell>
      </root>
    </mxGraphModel>
  </diagram>
</mxfile>
